<?xml version="1.0" encoding="utf-8"?>
<!-- Generator: Adobe Illustrator 16.0.0, SVG Export Plug-In . SVG Version: 6.00 Build 0)  -->
<!DOCTYPE svg PUBLIC "-//W3C//DTD SVG 1.1//EN" "http://www.w3.org/Graphics/SVG/1.1/DTD/svg11.dtd">
<svg version="1.1" id="图层_1" xmlns="http://www.w3.org/2000/svg" xmlns:xlink="http://www.w3.org/1999/xlink" x="0px" y="0px"
	 width="2407.16px" height="1163.006px" viewBox="0 0 2407.16 1163.006" enable-background="new 0 0 2407.16 1163.006"
	 xml:space="preserve">
<path fill="#FFFFFF" d="M418.994,247.768L418.994,247.768c17.943,0,32.297,14.354,32.297,34.091v566.979
	c0,17.941-14.354,34.09-32.297,34.09l0,0c-17.942,0-32.296-14.355-32.296-34.09V280.064
	C386.698,262.123,399.258,247.768,418.994,247.768"/>
<path fill="#FFFFFF" d="M523.063,247.768L523.063,247.768c17.942,0,32.296,14.354,32.296,34.091v566.979
	c0,17.941-14.354,34.09-32.296,34.09l0,0c-17.943,0-32.296-14.355-32.296-34.09V280.064
	C488.971,262.123,503.325,247.768,523.063,247.768"/>
<path fill="#FFFFFF" d="M627.128,247.768L627.128,247.768c17.942,0,32.296,14.354,32.296,34.091v566.979
	c0,17.941-14.354,34.09-32.296,34.09l0,0c-17.942,0-32.296-14.355-32.296-34.09V280.064
	C593.037,262.123,607.389,247.768,627.128,247.768"/>
<path fill="#FFFFFF" d="M731.193,247.768L731.193,247.768c17.943,0,32.297,14.354,32.297,34.091v211.72
	c0,17.94-14.354,34.089-32.297,34.089l0,0c-17.942,0-32.296-14.354-32.296-34.089V280.064
	C697.103,262.123,711.458,247.768,731.193,247.768"/>
<path fill="#FFFFFF" d="M314.931,881.136L314.931,881.136c-17.942,0-32.297-14.355-32.297-34.089V637.12
	c0-17.941,14.354-34.09,32.297-34.09l0,0c17.942,0,32.296,14.354,32.296,34.09v211.719
	C347.227,866.782,332.873,881.136,314.931,881.136"/>
<g>
	<path d="M-899.244,301.458c-42.224-20-72.224-52.222-92.224-96.666h-7.776c-14.445,41.11-46.668,73.333-96.667,97.777
		c-3.332-8.889-7.775-16.667-16.666-21.111c40-17.776,68.888-42.222,85.554-76.666h-76.664v-23.334h85.554
		c4.443-13.333,6.666-30,6.666-44.444v-11.111h-77.776V102.57h185.554v23.333h-83.334v6.667c0,18.889-2.221,34.444-5.555,50h102.224
		v23.333h-74.445c17.777,36.667,44.445,62.223,83.334,75.556C-891.467,289.237-897.023,295.903-899.244,301.458z"/>
	<path d="M-732.578,138.126l-5.556-20h-18.891c-6.666,8.889-16.666,20-28.889,31.111c-3.332-8.889-8.89-14.444-14.443-20
		c17.777-10,31.111-26.667,42.223-48.889l21.109,5.556c3.334,0,4.445,1.111,3.334,4.444c-1.11,2.222-3.333,3.333-6.665,2.222
		l-1.111,2.222c0,1.111-1.11,2.222-3.334,4.444h62.224v18.889h-34.445l4.444,14.445L-732.578,138.126z M-765.912,233.681v-94.445
		h164.444v94.445h-24.444v12.222h55.557v18.89h-55.557v35.556h-22.222v-35.556h-66.668c-4.442,20-24.442,32.223-57.776,38.89
		c-3.334-7.778-8.89-14.444-16.666-21.111c28.889-2.223,44.442-7.777,50-18.889h-56.668v-18.89h60V232.57
		C-735.912,233.681-765.912,233.681-765.912,233.681z M-743.689,155.903v10h121.111v-10H-743.689z M-743.689,180.348v10h121.111v-10
		H-743.689z M-743.689,205.903v10h121.111v-10C-623.689,205.903-743.689,205.903-743.689,205.903z M-712.578,233.681v12.222h65.555
		v-12.222H-712.578L-712.578,233.681z M-625.912,138.126l-6.666-20h-23.334c-3.332,7.778-8.89,14.444-14.443,21.111
		c-6.668-4.444-14.445-7.778-23.334-8.889c14.445-11.111,25.557-27.778,32.223-46.667l21.111,2.222
		c2.223,1.111,3.332,2.222,3.332,4.444c-1.109,2.223-3.332,3.334-6.666,2.223c-1.111,3.333-1.111,5.556-3.334,7.778h70v18.889
		h-36.666l5.557,14.445L-625.912,138.126z"/>
</g>
<g>
	<path d="M-1113.688,434.792v-2.223h3.332c2.223,0,4.445,0,5.557-1.111c1.112-1.11,2.222-2.222,3.332-3.333
		c0-1.11,1.111-3.333,1.111-8.889v-61.111c0-4.443,0-7.777-1.111-8.889c0-1.111-1.11-2.223-3.332-3.334
		c-1.11-1.11-3.334-1.11-5.557-1.11h-3.332v-2.223h41.109c11.11,0,20,1.111,26.666,4.444c7.778,3.333,14.444,8.889,18.889,17.777
		c4.445,7.778,6.668,16.667,6.668,25.556c0,6.667-1.111,12.223-3.334,18.89c-2.223,5.556-4.443,10-7.777,13.333
		c-3.334,3.333-6.666,6.667-11.11,8.889c-4.445,2.224-8.89,3.334-16.666,4.444c-2.224,0-6.668,1.11-12.223,1.11h-41.11
		C-1113.688,435.903-1113.688,434.792-1113.688,434.792z M-1078.133,348.125v72.223c0,3.333,0,5.556,0,6.667s1.109,1.11,2.222,2.224
		c1.11,1.109,3.334,1.109,5.557,1.109c7.777,0,13.332-2.223,17.777-7.776c5.555-6.667,7.776-18.889,7.776-32.223
		c0-11.11-2.223-22.223-5.555-28.89c-3.334-5.556-6.668-8.889-11.111-11.11C-1064.801,348.125-1070.355,348.125-1078.133,348.125z"
		/>
	<path d="M-983.689,348.125v37.777h2.223c5.556,0,10-2.222,12.224-5.556c2.221-3.333,4.442-8.89,4.442-16.666h2.224v48.889h-2.224
		c0-5.556-1.11-8.889-3.332-12.223c-2.223-3.333-3.334-5.556-5.557-6.666c-2.223-1.111-5.555-2.224-10-2.224v26.667
		c0,4.444,0,7.777,1.111,8.89c0,1.11,1.11,2.224,2.223,2.224c1.111,1.109,3.332,1.109,5.555,1.109h5.558
		c8.889,0,16.666-2.223,21.11-5.556c5.556-3.334,8.89-10.001,11.109-18.89h2.223l-4.442,30h-81.112v-2.223h3.332
		c2.223,0,4.445,0,6.668-1.11c1.111-1.111,2.223-2.224,2.223-3.333c0-1.111,1.109-3.334,1.109-8.89v-61.11c0-4.444,0-6.667,0-7.778
		c0-1.111-1.109-3.333-2.221-3.333c-1.111-1.11-4.445-2.223-6.668-2.223h-4.443v-2.222h76.666v27.776h-2.223
		c-1.111-6.666-3.332-11.111-5.556-14.444c-2.223-3.332-5.557-4.443-10-6.666c-2.223,0-6.666,0-13.334,0h-8.889L-983.689,348.125
		L-983.689,348.125z"/>
	<path d="M-848.133,402.57l-3.334,32.223h-82.223v-2.223h3.334c2.223,0,4.443,0,6.666-1.111c1.111-1.11,2.223-2.222,2.223-3.333
		c0-1.11,1.111-3.333,1.111-8.889v-61.111c0-4.443,0-7.777-1.111-8.889c0-1.111-1.11-2.223-3.334-3.334
		c-1.11-1.11-3.332-1.11-5.555-1.11h-3.334v-2.223h50v2.223h-4.443c-2.223,0-4.444,0-6.668,1.11
		c-1.11,1.111-2.223,2.223-2.223,3.334c0,1.11-1.109,3.333-1.109,8.889v58.89c0,4.443,0,7.777,1.109,8.889
		c0,1.11,1.111,2.223,3.334,3.334c1.111,0,3.334,1.109,7.777,1.109h7.778c4.443,0,8.89-1.109,12.222-2.223
		c3.334-2.223,5.557-4.443,7.776-7.777c2.224-3.333,4.445-8.89,6.668-16.666L-848.133,402.57L-848.133,402.57z"/>
	<path d="M-813.689,392.57v25.556c0,4.444,0,7.777,1.111,8.89c1.11,1.111,1.11,2.224,3.334,3.333c1.11,1.11,4.442,1.11,8.889,1.11
		v2.224h-46.668v-2.224c4.445,0,6.668,0,8.891-1.11c1.109-1.109,2.222-2.223,3.332-3.333c1.111-1.11,1.111-4.443,1.111-8.89v-60
		c0-4.443,0-7.777-1.111-8.889c-1.11-1.111-1.11-2.223-3.332-3.334c-1.11-1.11-4.444-1.11-8.891-1.11v-2.223h40
		c13.334,0,23.334,2.223,28.891,6.667c5.556,4.444,8.89,10,8.89,18.889c0,5.557-2.224,11.111-5.558,14.444
		c-3.332,4.444-8.889,6.667-14.442,8.889C-794.801,392.57-802.578,392.57-813.689,392.57z M-813.689,348.125v40
		c1.111,0,2.223,0,3.334,0c5.555,0,10-1.11,12.223-4.443c3.332-3.334,4.443-7.778,4.443-14.444c0-6.667-1.111-11.111-4.443-14.444
		c-3.334-3.334-6.668-4.444-13.334-4.444h-2.223C-813.689,349.237-813.689,348.125-813.689,348.125z"/>
	<path d="M-734.801,390.347v28.89c0,4.444,0,7.777,1.111,8.889c0,1.111,1.111,2.223,3.334,3.333
		c1.111,1.111,3.332,1.111,5.555,1.111h3.334v2.222h-48.889v-2.222h3.332c2.223,0,4.445,0,6.668-1.111
		c1.111-1.11,2.223-2.222,2.223-3.333c0-1.11,1.109-3.333,1.109-8.889v-61.111c0-4.443,0-7.777-1.109-8.889
		c0-1.111-1.11-2.223-3.334-3.334c-1.11-1.11-3.334-1.11-5.557-1.11h-3.332v-2.223h48.889v2.223h-3.334c-2.223,0-4.442,0-6.666,1.11
		c-1.11,1.111-2.223,2.223-2.223,3.334c0,1.11-1.111,3.333-1.111,8.889v26.667h32.224v-26.667c0-4.443,0-7.777-1.111-8.889
		c0-1.111-1.111-2.223-3.334-3.334c-1.109-1.11-3.332-1.11-5.555-1.11h-3.334v-2.223h48.889v2.223h-3.333
		c-2.223,0-4.445,0-6.668,1.11c-1.109,1.111-2.221,2.223-2.221,3.334c0,1.11-1.111,3.333-1.111,8.889v61.111
		c0,4.444,0,7.777,1.111,8.889c0,1.111,1.11,2.223,3.332,3.333c1.111,1.111,3.334,1.111,5.557,1.111h3.332v2.222h-48.889v-2.222
		h3.334c2.223,0,4.444,0,6.666-1.111c1.11-1.11,2.223-2.222,2.223-3.333c0-1.11,1.111-3.333,1.111-8.889v-28.89H-734.801
		L-734.801,390.347z"/>
	<path d="M-572.578,341.458v2.224c-3.334,0-5.556,1.11-6.666,2.222c-2.224,2.223-5.558,6.667-10,16.667l-20,33.333v22.223
		c0,4.444,0,7.777,1.11,8.89c0,1.11,1.109,2.224,3.332,3.333c1.111,1.11,3.334,1.11,5.558,1.11h4.442v2.224h-52.223v-2.224h4.444
		c2.224,0,4.445,0,6.666-1.11c1.111-1.109,2.224-2.223,2.224-3.333s1.111-3.333,1.111-8.89v-18.889l-22.224-40
		c-4.442-7.778-6.666-12.223-8.889-13.334c-2.223-1.111-4.443-2.222-6.666-2.222v-3.334h44.443v2.222h-3.332
		c-2.224,0-4.445,0-5.558,1.111c-1.112,1.11-1.11,1.11-1.11,2.222c0,1.112,2.223,5.556,5.557,12.223l17.777,31.111l16.666-27.778
		c4.444-6.666,5.557-11.11,5.557-13.333c0-1.11-1.111-2.223-2.223-3.333c-1.109-1.111-4.443-2.223-7.775-2.223v-2.223
		L-572.578,341.458L-572.578,341.458z"/>
</g>
<path fill="#AF8510" d="M3341.119,1307.938c-174.142,0-315.31,141.168-315.31,315.309c0,174.14,141.168,315.308,315.31,315.308
	c174.139,0,315.308-141.168,315.308-315.308C3656.427,1449.106,3515.257,1307.938,3341.119,1307.938z M3341.119,1879.415
	c-141.479,0-256.169-114.689-256.169-256.168s114.689-256.168,256.169-256.168c141.477,0,256.168,114.689,256.168,256.168
	C3597.287,1764.725,3482.595,1879.415,3341.119,1879.415z"/>
<g>
	<path fill="#FFFFFF" d="M1054.969,632.059c-10.616-15.392-24.677-29.191-42.189-41.393c48.557-28.122,87.294-57.313,116.218-87.562
		l52.139,35.025c5.833,3.719,7.426,7.432,4.776,11.144c-2.923,3.452-7.83,3.582-14.727,0.398
		C1143.059,575.144,1104.321,602.606,1054.969,632.059z M1035.068,394.05v-52.935h66.069v-72.438l56.517,1.99
		c6.897,0.267,10.349,2.257,10.349,5.97c0.528,4.247-3.054,7.164-10.747,8.756v55.721h87.164v-72.438l56.518,1.99
		c6.896,0.267,10.348,2.257,10.348,5.97c0.529,4.247-3.054,7.164-10.746,8.756v55.721h61.691v52.935h-61.691v55.323h75.224v52.935
		h-354.227v-52.935h79.602V394.05H1035.068z M1157.256,394.05v55.323h87.164V394.05H1157.256z M1329.195,626.089
		c-31.312-25.473-68.326-52.27-111.044-80.398l40.597-40.597c51.206,29.453,89.95,55.721,116.219,78.805L1329.195,626.089z"/>
	<path fill="#FFFFFF" d="M1692.179,552.457h-49.751V374.15c-4.776,10.348-9.422,22.823-13.931,37.413
		c-0.796-0.529-2.127-1.325-3.979-2.388c-1.86-0.796-3.321-1.455-4.379-1.99v71.243c1.058,25.473-8.494,41.262-28.656,47.363
		c14.061,8.228,29.583,13.8,46.567,16.716c-2.923,27.064-8.626,45.908-17.114,56.518c-7.699,10.609-20.168,15.783-37.413,15.521
		h-85.97c-31.312,0-46.965-15.392-46.965-46.168V441.811c-2.655,2.655-5.441,5.174-8.358,7.562
		c-11.144-16.181-23.88-30.51-38.208-42.985c50.677-42.717,86.23-89.551,106.665-140.497l58.508,13.931
		c5.305,1.331,7.562,3.849,6.766,7.562c-0.534,4.776-4.775,6.903-12.736,6.368c24.677,21.492,51.076,39.402,79.204,53.731v-43.781
		l52.139,1.99c5.572,0.535,8.222,2.656,7.96,6.368c0,4.248-3.451,6.903-10.348,7.96V552.457z M1534.966,344.299
		c-11.412,17.78-24.677,35.162-39.801,52.139h106.268C1578.877,383.173,1556.719,365.792,1534.966,344.299z M1560.836,564
		c13.793,1.859,20.827-9.95,21.095-35.423c-11.94,3.184-27.998,5.311-48.159,6.368c-2.923-18.837-9.154-35.951-18.706-51.343
		c35.024,4.515,51.343,0.796,48.954-11.145v-24.676h-57.313v100.298c-0.796,11.412,4.509,16.716,15.92,15.92H1560.836z
		 M1763.422,586.686c0.261,15.653-5.044,26.399-15.921,32.239c-10.615,6.367-31.044,9.95-61.293,10.746
		c-3.719-18.576-11.014-36.089-21.89-52.537c19.104,1.331,31.306,1.461,36.616,0.398c5.833-0.796,8.488-3.445,7.96-7.96V264.698
		l56.915,1.99c5.572,0.267,8.358,2.257,8.358,5.97c0.261,4.248-3.321,7.165-10.746,8.756V586.686z"/>
	<path fill="#FFFFFF" d="M1887.601,627.282h-56.119V286.19h323.978v292.138c0.797,19.104-4.912,31.573-17.114,37.413
		c-11.411,6.629-36.485,10.479-75.223,11.542c-1.063-20.168-7.699-39.135-19.9-56.915c23.612,3.184,39.004,3.98,46.169,2.388
		c7.164-1.057,10.479-5.572,9.95-13.532v-23.88l-39.403,18.309c-0.535-1.325-1.461-3.445-2.786-6.368
		c-3.979-9.813-9.291-21.754-15.92-35.821c-11.145,19.639-26.138,41.928-44.975,66.865c-10.087-7.96-24.148-14.191-42.189-18.707
		c11.405-13.793,21.891-27.593,31.442-41.393l-25.472,11.94c-1.593-3.98-4.117-9.683-7.563-17.114
		c-3.451-7.692-6.106-13.395-7.96-17.114c-11.412,20.964-26.269,43.781-44.577,68.458c-3.979-3.445-8.097-6.766-12.338-9.95V627.282
		z M2012.973,370.568c9.553,13.003,18.569,26.269,27.064,39.801c7.164-21.225,13.135-42.718,17.91-64.478l41.394,11.542v-18.309
		h-211.74v31.841l26.269-13.134c9.284,12.736,18.041,25.211,26.269,37.413c5.572-16.716,10.479-34.092,14.726-52.139l43.383,11.94
		c5.038,1.331,7.027,3.582,5.971,6.766c-0.796,3.184-3.85,4.515-9.154,3.98c-0.535,1.592-1.194,3.85-1.99,6.766
		c-1.063,4.248-1.859,7.301-2.388,9.154L2012.973,370.568z M1887.601,505.094c12.201-19.104,22.816-37.941,31.841-56.517
		c-9.82-17.512-20.436-34.757-31.841-51.741V505.094z M1997.053,500.318c7.692-12.202,14.459-24.409,20.298-36.617
		c-10.348-19.9-21.76-39.403-34.229-58.507c-3.979,13.004-8.495,25.473-13.532,37.413
		C1978.875,458.527,1988.029,477.769,1997.053,500.318z M2098.146,368.578c-9.819,35.821-20.037,65.808-30.646,89.95
		c11.94,22.556,22.55,46.038,31.841,70.447V368.578H2098.146z"/>
</g>
<g>
	<path fill="#FFFFFF" d="M1014.072,820.283h-26.656v-22.875h55.77v68.436c-7.562,2.523-17.647,4.349-30.248,5.483
		c-0.883,0-2.207,0.062-3.97,0.188c-8.067,0.629-17.204,0.945-27.413,0.945c-41.718-2.52-63.143-25.9-64.277-70.138
		c1.258-44.489,22.686-68.247,64.277-71.272c42.85-0.251,64.15,14.495,63.899,44.238h-31.004c0-15.502-9.264-23.254-27.791-23.254
		c-25.082,0.506-37.875,17.269-38.377,50.288c0.502,32.644,13.296,49.218,38.377,49.721c7.308,0,15.815-0.818,25.522-2.458
		c0.88-0.124,1.512-0.251,1.891-0.378V820.283z"/>
	<path fill="#FFFFFF" d="M1130.715,872.461c-42.602-1.01-64.532-24.388-65.79-70.138c1.386-46.38,23.315-70.138,65.79-71.272
		c42.093,1.135,63.834,24.893,65.222,71.272C1194.676,848.073,1172.935,871.451,1130.715,872.461z M1130.715,752.035
		c-23.318,0-34.913,16.764-34.786,50.288c0,33.148,11.594,49.721,34.786,49.721c22.81,0,34.218-16.572,34.218-49.721
		C1164.933,768.799,1153.525,752.035,1130.715,752.035z"/>
	<path fill="#FFFFFF" d="M1339.614,870.192h-41.78l-53.501-113.431l-0.378,0.378v113.053h-27.791V733.887h43.671l51.989,107.57
		l0.378-0.379V733.887h27.412V870.192z"/>
	<path fill="#FFFFFF" d="M1454.746,820.283h-26.656v-22.875h55.77v68.436c-7.563,2.523-17.646,4.349-30.248,5.483
		c-0.883,0-2.207,0.062-3.971,0.188c-8.066,0.629-17.203,0.945-27.412,0.945c-41.718-2.52-63.143-25.9-64.277-70.138
		c1.259-44.489,22.687-68.247,64.277-71.272c42.85-0.251,64.15,14.495,63.899,44.238h-31.005c0-15.502-9.264-23.254-27.79-23.254
		c-25.081,0.506-37.875,17.269-38.378,50.288c0.503,32.644,13.297,49.218,38.378,49.721c7.308,0,15.815-0.818,25.522-2.458
		c0.88-0.124,1.512-0.251,1.891-0.378V820.283z"/>
	<path fill="#FFFFFF" d="M1618.651,778.313h-31.005c-0.756-17.015-9.518-25.772-26.277-26.278
		c-16.259,0.884-25.02,17.647-26.278,50.288c1.259,32.139,10.02,48.713,26.278,49.721c16.76-0.503,25.521-9.075,26.277-25.711
		h31.005c-1.389,30.248-20.482,45.623-57.282,46.128c-36.93-1.134-56.024-24.512-57.283-70.138
		c1.386-46.253,20.48-70.011,57.283-71.272C1598.169,731.556,1617.263,747.31,1618.651,778.313z"/>
	<path fill="#FFFFFF" d="M1665.91,870.192h-29.303V733.887h29.303v53.88h51.611v-53.88h29.492v136.306H1717.9v-59.74h-51.99V870.192
		z"/>
	<path fill="#FFFFFF" d="M1863.277,733.887h29.114v85.262c-1.134,34.156-20.796,51.924-58.983,53.313
		c-38.566-1.262-58.418-19.029-59.552-53.313v-85.262h29.492v74.297c-0.378,16.637,1.636,27.855,6.05,33.651
		c4.537,6.806,12.539,10.209,24.01,10.209c11.215,0,19.155-3.403,23.82-10.209c4.283-5.923,6.301-17.139,6.049-33.651V733.887z"/>
	<path fill="#FFFFFF" d="M1937.006,870.192h-27.979l49.343-136.306h34.785l47.641,136.306h-29.492l-10.02-28.735h-53.879
		L1937.006,870.192z M1954.777,818.96h39.133l-18.904-58.417h-0.379L1954.777,818.96z"/>
	<path fill="#FFFFFF" d="M2178.421,870.192h-41.78l-53.501-113.431l-0.378,0.378v113.053h-27.791V733.887h43.671l51.989,107.57
		l0.378-0.379V733.887h27.412V870.192z"/>
	<path fill="#FFFFFF" d="M2293.553,820.283h-26.656v-22.875h55.77v68.436c-7.563,2.523-17.646,4.349-30.248,5.483
		c-0.883,0-2.207,0.062-3.971,0.188c-8.066,0.629-17.203,0.945-27.412,0.945c-41.718-2.52-63.143-25.9-64.277-70.138
		c1.259-44.489,22.687-68.247,64.277-71.272c42.85-0.251,64.15,14.495,63.899,44.238h-31.005c0-15.502-9.264-23.254-27.79-23.254
		c-25.081,0.506-37.875,17.269-38.378,50.288c0.503,32.644,13.297,49.218,38.378,49.721c7.308,0,15.815-0.818,25.522-2.458
		c0.88-0.124,1.512-0.251,1.891-0.378V820.283z"/>
</g>
</svg>
